<?xml version="1.0" standalone="no"?>
<!DOCTYPE svg PUBLIC "-//W3C//DTD SVG 20010904//EN"
 "http://www.w3.org/TR/2001/REC-SVG-20010904/DTD/svg10.dtd">
<svg version="1.0" xmlns="http://www.w3.org/2000/svg"
 width="260.000000pt" height="260.000000pt" viewBox="0 0 260.000000 260.000000"
 preserveAspectRatio="xMidYMid meet">
<metadata>
Created by potrace 1.14, written by Peter Selinger 2001-2017
</metadata>
<g transform="translate(0.000000,260.000000) scale(0.100000,-0.100000)"
fill="#000000" stroke="none">
<path d="M564 2551 c-39 -24 -69 -96 -60 -143 3 -18 24 -80 46 -138 22 -58 40
-107 40 -110 0 -3 -55 -5 -122 -5 l-123 0 -146 -63 c-81 -35 -154 -71 -162
-80 -30 -33 -38 -70 -23 -107 20 -48 187 -266 233 -304 54 -45 155 -91 228
-104 l62 -10 27 -306 28 -306 -26 -46 c-38 -68 -76 -259 -65 -328 9 -60 42
-122 88 -165 17 -17 31 -36 31 -44 0 -24 70 -176 93 -201 12 -13 40 -32 62
-42 37 -17 74 -19 503 -19 498 0 504 1 561 53 24 22 67 108 91 182 7 22 30 59
50 83 54 60 73 107 78 182 4 78 -27 221 -65 297 l-26 52 27 288 c14 158 26
296 26 306 0 14 9 17 53 17 101 0 225 50 305 123 25 23 85 95 134 160 83 112
88 121 88 168 0 40 -5 55 -22 71 -23 20 -188 94 -287 129 -66 23 -192 25 -271
5 -30 -8 -56 -13 -58 -11 -2 2 16 57 41 122 24 65 47 131 51 146 10 44 -11
102 -49 136 -30 26 -44 31 -85 31 -47 0 -54 -4 -207 -122 -87 -67 -174 -134
-193 -150 l-35 -28 -205 0 -205 0 -189 147 c-179 139 -191 147 -240 150 -38 3
-59 -1 -82 -16z m216 -193 l133 -102 -47 -12 c-26 -7 -71 -24 -100 -38 -29
-14 -55 -26 -58 -26 -4 0 -27 56 -52 125 -44 119 -49 155 -21 155 7 0 73 -46
145 -102z m1160 72 c0 -23 -73 -233 -86 -249 -2 -3 -25 6 -51 19 -26 13 -71
31 -101 40 l-54 17 129 101 c70 55 136 101 146 101 12 1 17 -7 17 -29z m-578
-692 c4 -436 5 -456 27 -528 12 -41 40 -108 60 -147 l38 -73 -207 0 -207 0 43
86 c75 150 77 161 81 667 l4 447 79 0 79 0 3 -452z m-854 244 c10 -7 11 -19 2
-56 -7 -34 -7 -78 0 -148 5 -55 10 -102 10 -104 0 -11 -42 -1 -87 21 -34 18
-65 44 -92 80 -57 75 -66 97 -51 125 15 28 121 75 200 89 3 0 11 -3 18 -7z
m1742 -33 c80 -36 95 -60 66 -113 -30 -56 -95 -124 -139 -145 -49 -24 -137
-29 -137 -8 0 6 4 53 9 102 5 50 5 111 1 135 -10 55 -4 60 72 60 43 0 75 -8
128 -31z m-1296 -375 c23 -24 26 -35 26 -94 0 -57 -4 -71 -24 -93 -44 -47
-143 -48 -186 -2 -28 30 -38 110 -20 155 19 46 46 60 116 60 53 0 65 -4 88
-26z m818 15 c43 -23 62 -123 33 -179 -31 -59 -126 -78 -189 -37 -53 35 -59
152 -9 201 22 22 35 26 85 26 33 0 68 -5 80 -11z m50 -741 c25 -15 56 -43 67
-61 56 -91 63 -299 12 -360 -14 -16 -43 -38 -66 -48 -37 -17 -77 -19 -555 -19
-480 0 -518 2 -555 19 -73 34 -92 64 -99 161 -10 134 22 246 83 289 72 52 62
51 581 48 l485 -2 47 -27z m-22 -605 c0 -23 -37 -83 -56 -92 -34 -15 -893 -16
-927 0 -21 9 -57 65 -57 87 0 4 234 7 520 7 286 0 520 -1 520 -2z"/>
<path d="M830 1537 c-36 -18 -41 -88 -8 -111 73 -51 152 48 82 103 -31 24 -40
25 -74 8z m35 -47 c-20 -22 -31 -20 -22 5 4 8 14 15 23 15 16 0 16 -2 -1 -20z"/>
<path d="M1663 1540 c-48 -19 -40 -107 10 -124 43 -15 81 10 85 54 2 19 -3 43
-10 52 -16 21 -56 30 -85 18z m47 -33 c0 -2 -9 -12 -20 -22 -19 -18 -20 -17
-20 3 0 15 6 22 20 22 11 0 20 -2 20 -3z"/>
<path d="M951 783 c-5 -11 -13 -62 -17 -115 -8 -111 -13 -105 104 -133 90 -22
100 -16 92 56 l-5 53 -55 22 -55 22 -5 53 c-4 46 -8 54 -27 57 -13 2 -26 -4
-32 -15z"/>
<path d="M1555 788 c-2 -7 -6 -33 -7 -57 -3 -42 -4 -44 -58 -65 -55 -22 -55
-23 -61 -72 -10 -84 -9 -85 116 -51 l80 22 -3 94 c-2 51 -7 104 -12 117 -10
26 -47 33 -55 12z"/>
</g>
</svg>
