<?xml version="1.0" encoding="UTF-8"?><svg id="_レイヤー_2" xmlns="http://www.w3.org/2000/svg" viewBox="0 0 275.24 59.78"><defs><style>.cls-1{fill:#4d301a;}</style></defs><g id="_レイヤー_1-2"><path class="cls-1" d="m25.8,28.2c-1.63,1.09-3.47,2.09-5.52,3-2.05.88-4.03,1.59-5.92,2.12-.83.24-1.69.43-2.6.56-.91.16-1.79.31-2.64.44-.32.05-.64.11-.96.16-.29.05-.6.08-.92.08-.11,0-.25-.01-.44-.04-.19-.03-.28-.12-.28-.28,0-.19.12-.33.36-.44.27-.11.53-.19.8-.24.27-.08.53-.17.8-.28.35-.13.68-.27,1-.4s.65-.27,1-.4c2.16-.88,4.24-1.84,6.24-2.88,2-1.07,3.85-2.41,5.56-4.04.61.43,1.2.87,1.76,1.32.59.43,1.17.87,1.76,1.32Zm5,3.2c0,.11-.07.21-.2.32-.13.08-.24.15-.32.2-3.31,1.73-6.68,3.12-10.12,4.16-3.44,1.07-7.04,1.6-10.8,1.6h-.52c-.24,0-.47-.04-.68-.12-.21-.05-.32-.16-.32-.32,0-.11.05-.2.16-.28.11-.08.2-.13.28-.16.21-.08.43-.15.64-.2.21-.03.41-.07.6-.12.37-.11.76-.21,1.16-.32.4-.11.79-.21,1.16-.32,1.63-.51,3.36-1.12,5.2-1.84,1.84-.72,3.63-1.53,5.36-2.44,1.76-.91,3.28-1.91,4.56-3,.11.08.36.25.76.52.4.27.84.57,1.32.92.48.32.89.61,1.24.88.35.27.52.44.52.52Zm-9.04-6.64c-.88.61-1.93,1.31-3.16,2.08-1.2.77-2.48,1.52-3.84,2.24-1.36.69-2.71,1.28-4.04,1.76-1.31.45-2.49.68-3.56.68-.27,0-.4-.11-.4-.32,0-.11.05-.19.16-.24.56-.27,1.11-.53,1.64-.8.53-.27,1.05-.56,1.56-.88,1.55-.99,3-2.05,4.36-3.2,1.39-1.15,2.71-2.37,3.96-3.68l3.32,2.36Zm17.12,3.56c0,.59-.24,1.01-.72,1.28-.48.27-.97.4-1.48.4-1.49,0-3.03-.25-4.6-.76-1.57-.53-3.12-1.24-4.64-2.12-1.49-.88-2.88-1.85-4.16-2.92-1.28-1.09-2.39-2.19-3.32-3.28-.43.11-.91.25-1.44.44-.53.19-.99.4-1.36.64-.35.21-.68.47-1,.76-.29.27-.6.53-.92.8-2.13,1.65-4.27,3.05-6.4,4.2-2.13,1.12-4.52,2.01-7.16,2.68-.19.05-.39.09-.6.12s-.43.04-.64.04c-.11,0-.21-.03-.32-.08-.08-.08-.12-.17-.12-.28,0-.16.03-.27.08-.32.08-.05.17-.11.28-.16,1.76-1.07,3.43-2.13,5-3.2,1.57-1.07,3.05-2.24,4.44-3.52,1.41-1.28,2.75-2.76,4-4.44v-1.32c-1.07.61-2.16,1.2-3.28,1.76-1.12.53-2.27.95-3.44,1.24-.51.11-1.03.23-1.56.36-.53.11-1.07.16-1.6.16-.08,0-.19-.03-.32-.08-.11-.05-.16-.13-.16-.24,0-.16.07-.28.2-.36.13-.11.25-.19.36-.24.45-.24.91-.48,1.36-.72.48-.24.93-.51,1.36-.8,1.09-.75,2.13-1.57,3.12-2.48s1.89-1.87,2.72-2.88l1.24.76v-3.4h-3.08c.13.05.39.19.76.4.4.19.77.37,1.12.56.37.19.56.33.56.44,0,.08-.04.15-.12.2-1.23.8-2.61,1.48-4.16,2.04-1.52.56-2.99,1-4.4,1.32-.24.05-.49.12-.76.2-.27.05-.53.08-.8.08-.08,0-.19-.03-.32-.08-.11-.05-.16-.13-.16-.24,0-.16.05-.28.16-.36.11-.08.21-.15.32-.2.24-.13.48-.25.72-.36.24-.13.48-.28.72-.44.77-.51,1.51-1.05,2.2-1.64.69-.61,1.36-1.25,2-1.92H3.68v-1.76h14.52v8.32c.32.11.64.21.96.32.32.08.64.19.96.32.11.03.19.05.24.08.08.03.12.11.12.24s-.11.35-.32.64c-.19.29-.4.59-.64.88-.21.27-.37.45-.48.56.16-.08.45-.2.88-.36s.88-.33,1.36-.52c.51-.21.96-.39,1.36-.52.43-.13.71-.2.84-.2s.28.05.44.16c.03,0,.13.15.32.44.21.27.43.55.64.84.21.29.33.47.36.52.77,1.01,1.71,2.01,2.8,3,1.09.99,2.25,1.89,3.48,2.72,1.23.83,2.41,1.52,3.56,2.08.19-.53.44-.92.76-1.16.32-.27.76-.4,1.32-.4.4,0,.79.2,1.16.6.37.37.56.76.56,1.16Zm-4.52-9.24h-4.6v-2.84c-.83.27-1.73.55-2.72.84-.99.29-1.97.55-2.96.76-.99.19-1.91.28-2.76.28-.24,0-.36-.09-.36-.28,0-.13.11-.25.32-.36.21-.13.37-.23.48-.28,1.41-.69,2.72-1.4,3.92-2.12,1.23-.75,2.4-1.69,3.52-2.84l.56.36v-2.28h-2.84c.11.05.32.16.64.32.32.16.63.33.92.52.29.16.44.29.44.4,0,.08-.04.15-.12.2-.77.48-1.75.99-2.92,1.52-1.15.51-2.32.93-3.52,1.28-1.2.35-2.27.52-3.2.52-.08,0-.19-.01-.32-.04-.11-.05-.16-.13-.16-.24,0-.13.05-.24.16-.32.11-.08.21-.15.32-.2.99-.53,1.89-1.12,2.72-1.76.83-.67,1.63-1.4,2.4-2.2h-4.68v-1.72h14.76v10.48Zm2.44-15.44c0,.75-.32,1.28-.96,1.6-.64.29-1.27.44-1.88.44h-8.68c-.16.24-.44.57-.84,1-.4.4-.83.76-1.28,1.08-.45.32-.84.48-1.16.48-.13,0-.27-.05-.4-.16-.13-.11-.2-.24-.2-.4v-1c0-.32.01-.65.04-1h-5.92l.12,1.96-4.72.24-.12-2.2H1.88v-1.88h8.84l-.2-3.48,4.72-.16.2,3.64h6.2c.08-.64.15-1.27.2-1.88.05-.64.12-1.28.2-1.92l5.12.68c.13.03.24.07.32.12.08.03.12.11.12.24,0,.21-.08.51-.24.88-.16.35-.35.69-.56,1.04-.19.35-.35.63-.48.84h5.32c.05-.67.31-1.25.76-1.76.45-.53,1.03-.8,1.72-.8.77,0,1.41.2,1.92.6.51.4.76,1,.76,1.8Zm21.24,8.88c0,.56-.25.99-.76,1.28-.48.27-.96.4-1.44.4h-3.36v3.32c.45-.21.91-.43,1.36-.64s.91-.41,1.36-.6c.05.16.17.49.36,1,.21.51.44,1.09.68,1.76.27.64.52,1.28.76,1.92.27.61.48,1.13.64,1.56.16.43.24.65.24.68,0,.19-.08.33-.24.44-.13.08-.28.12-.44.12-.29,0-.72-.19-1.28-.56-.53-.4-1.07-.84-1.6-1.32-.37-.35-.73-.68-1.08-1-.35-.35-.6-.61-.76-.8v16.44h-4.68v-15.32c-.45.99-1.11,2.07-1.96,3.24-.85,1.17-1.79,2.25-2.8,3.24-1.01.99-2.04,1.69-3.08,2.12-.03.03-.09.04-.2.04-.05,0-.12-.01-.2-.04-.08-.05-.12-.12-.12-.2,0-.05.04-.13.12-.24.08-.13.17-.29.28-.48.16-.32.33-.65.52-1,.21-.37.35-.61.4-.72.85-1.73,1.57-3.52,2.16-5.36.59-1.84,1.04-3.71,1.36-5.6.59.19,1.17.37,1.76.56.59.19,1.17.36,1.76.52v-3.08h-6.48v-1.76h6.48v-5.16c-1.07.13-2.13.25-3.2.36-1.07.08-2.15.12-3.24.12-.11,0-.24-.01-.4-.04-.16-.05-.24-.16-.24-.32,0-.21.16-.36.48-.44.21-.05.49-.15.84-.28.37-.13.63-.21.76-.24,1.97-.69,3.87-1.51,5.68-2.44,1.81-.93,3.57-1.97,5.28-3.12.35.21.77.51,1.28.88.53.37,1.04.75,1.52,1.12.48.35.83.6,1.04.76.13.11.2.24.2.4,0,.24-.28.49-.84.76-.4.21-.92.44-1.56.68-.64.21-1.24.4-1.8.56-.53.16-.91.27-1.12.32v6.08h1.56c0-.53.21-.97.64-1.32.43-.37.89-.56,1.4-.56.53,0,.99.2,1.36.6.4.37.6.83.6,1.36Zm7.36,7.36c0,.24-.08.43-.24.56-.16.11-.35.16-.56.16-.16,0-.29-.03-.4-.08-.11-.05-.23-.12-.36-.2-1.09-.64-2.21-1.25-3.36-1.84-1.12-.59-2.23-1.19-3.32-1.8.16-.16.4-.4.72-.72.35-.35.71-.69,1.08-1.04.37-.37.68-.69.92-.96.48-.53.91-.8,1.28-.8.24,0,.53.2.88.6.35.37.71.85,1.08,1.44.4.59.77,1.2,1.12,1.84.35.61.63,1.19.84,1.72.21.51.32.88.32,1.12Zm13.6-.12c0,.56-.17,1.07-.52,1.52-.32.43-.75.71-1.28.84l-5.16,1.4v13.28h-4.6v-12.24l-10.88,2.76-.6-2.08,11.48-2.92V2.28h4.6v19l1.96-.52c-.08-.05-.13-.16-.16-.32-.03-.19-.04-.33-.04-.44,0-.72.27-1.32.8-1.8.53-.51,1.16-.76,1.88-.76.61,0,1.19.23,1.72.68.53.45.8,1,.8,1.64Zm-12.92-8.6c0,.48-.27.72-.8.72-.13,0-.27-.03-.4-.08-.11-.05-.23-.11-.36-.16-1.12-.59-2.24-1.19-3.36-1.8-1.09-.64-2.19-1.27-3.28-1.88.16-.16.41-.43.76-.8.35-.4.72-.81,1.12-1.24.43-.43.83-.79,1.2-1.08.37-.32.65-.48.84-.48.24,0,.53.2.88.6.37.37.75.85,1.12,1.44.4.59.77,1.2,1.12,1.84.35.64.63,1.23.84,1.76.21.53.32.92.32,1.16Zm42.56,17.48c0,.83-.33,1.53-1,2.12-.64.56-1.31,1-2,1.32-1.36.64-2.81,1.12-4.36,1.44-1.52.29-3.03.44-4.52.44-1.28,0-2.56-.12-3.84-.36-1.25-.24-2.44-.64-3.56-1.2-1.12-.56-2.07-1.31-2.84-2.24-.77-.96-1.31-2.15-1.6-3.56.19-.13.52-.37,1-.72.51-.37,1.01-.72,1.52-1.04.51-.32.85-.48,1.04-.48.24,0,.4.15.48.44.13.4.27.79.4,1.16.13.35.31.71.52,1.08.85,1.44,2.07,2.55,3.64,3.32s3.17,1.16,4.8,1.16c1.09,0,2.15-.08,3.16-.24,1.04-.19,2.07-.45,3.08-.8-.19-.21-.36-.47-.52-.76-.13-.32-.2-.63-.2-.92,0-.59.24-1.09.72-1.52.48-.45,1-.68,1.56-.68s1.08.19,1.64.56c.59.37.88.87.88,1.48Zm-2.08-19.64c0,.64-.28,1.32-.84,2.04-.56.69-1.21,1.33-1.96,1.92-.72.59-1.33,1.04-1.84,1.36-.19.13-.4.28-.64.44-.21.13-.43.25-.64.36-.19.08-.4.12-.64.12-.19,0-.35-.04-.48-.12-.13-.11-.2-.25-.2-.44,0-.21.09-.52.28-.92.19-.43.37-.88.56-1.36.19-.51.28-.96.28-1.36,0-.48-.15-.81-.44-1-.27-.21-.6-.35-1-.4-.37-.08-.73-.13-1.08-.16-.35-.03-.72-.04-1.12-.04-.37-.03-.75-.04-1.12-.04-1.39,0-2.79.07-4.2.2-1.39.13-2.77.28-4.16.44l.04-2.48c2.85-.24,5.72-.36,8.6-.36,1.6,0,3.2.05,4.8.16,1.63.08,3.23.29,4.8.64.21.03.41.11.6.24.27.11.4.36.4.76Zm7.56,2.16c0,.08-.05.17-.16.28-.08.08-.17.12-.28.12-.19,0-.51-.08-.96-.24-.45-.16-.96-.36-1.52-.6-.53-.24-1.05-.47-1.56-.68-.48-.21-.85-.36-1.12-.44-.08-.03-.19-.07-.32-.12-.11-.05-.16-.13-.16-.24,0-.16.16-.43.48-.8.32-.4.65-.76,1-1.08.37-.35.64-.52.8-.52.29,0,.65.17,1.08.52.43.32.84.73,1.24,1.24.43.48.77.96,1.04,1.44.29.45.44.83.44,1.12Zm2.48-3.72c0,.08-.05.17-.16.28-.08.08-.17.12-.28.12-.08,0-.31-.08-.68-.24-.35-.19-.75-.39-1.2-.6-.45-.24-.88-.47-1.28-.68-.37-.21-.63-.36-.76-.44-.11-.05-.31-.12-.6-.2-.27-.11-.52-.23-.76-.36-.24-.13-.36-.25-.36-.36,0-.16.16-.43.48-.8.32-.37.67-.72,1.04-1.04.4-.32.68-.48.84-.48.32,0,.69.19,1.12.56.43.37.83.84,1.2,1.4.4.53.73,1.07,1,1.6.27.51.4.92.4,1.24Zm34.88,20.32c0,.51-.2,1.01-.6,1.52-.37.48-.83.92-1.36,1.32-.51.37-.96.68-1.36.92-.83.45-1.83.89-3,1.32-1.15.43-2.32.77-3.52,1.04-1.17.29-2.24.44-3.2.44-1.12,0-2.31-.12-3.56-.36-1.25-.21-2.44-.59-3.56-1.12-1.09-.56-1.99-1.29-2.68-2.2-.69-.93-1.04-2.09-1.04-3.48,0-1.2.31-2.31.92-3.32.64-1.01,1.45-1.93,2.44-2.76.99-.83,2.03-1.56,3.12-2.2s2.11-1.19,3.04-1.64c-.48-.37-.87-.81-1.16-1.32-.29-.53-.52-1.09-.68-1.68-.11-.37-.2-.75-.28-1.12-.05-.37-.11-.75-.16-1.12-.19-1.47-.36-2.93-.52-4.4-.13-1.47-.27-2.93-.4-4.4l4.8-.28c.05,1.15.09,2.29.12,3.44.03,1.15.07,2.31.12,3.48.03.59.05,1.19.08,1.8.03.59.09,1.19.2,1.8.03.13.08.36.16.68.11.29.24.57.4.84.16.24.33.36.52.36.16,0,.43-.11.8-.32.37-.24.75-.47,1.12-.68.4-.21.72-.32.96-.32s.41.04.52.12c.13.08.29.2.48.36.19.16.43.41.72.76.29.32.55.67.76,1.04.24.35.36.65.36.92,0,.43-.16.71-.48.84-.29.13-.63.2-1,.2h-.56c-.16-.03-.33-.04-.52-.04-1.09,0-2.32.17-3.68.52s-2.67.87-3.92,1.56c-1.23.69-2.25,1.55-3.08,2.56-.8.99-1.2,2.13-1.2,3.44,0,1.23.39,2.24,1.16,3.04.77.77,1.71,1.35,2.8,1.72,1.12.37,2.2.56,3.24.56,1.49,0,3.07-.19,4.72-.56,1.68-.37,3.2-.88,4.56-1.52-.85-.29-1.28-.91-1.28-1.84,0-.56.25-1.03.76-1.4.53-.4,1.07-.6,1.6-.6.59,0,1.12.2,1.6.6.48.37.72.87.72,1.48Zm37.6-7.56c0,1.97-.43,3.81-1.28,5.52-.85,1.68-1.97,3.2-3.36,4.56-1.23,1.23-2.55,2.21-3.96,2.96-1.41.75-2.92,1.41-4.52,2-.27.08-.69.21-1.28.4-.56.19-1.12.36-1.68.52-.56.16-.96.24-1.2.24-.11,0-.23-.04-.36-.12-.13-.05-.2-.15-.2-.28,0-.16.07-.29.2-.4.13-.11.25-.17.36-.2.53-.21,1.15-.48,1.84-.8.69-.32,1.31-.65,1.84-1,1.55-.99,2.97-2.15,4.28-3.48,1.33-1.36,2.4-2.88,3.2-4.56s1.2-3.47,1.2-5.36c0-.91-.15-1.83-.44-2.76-.27-.96-.72-1.76-1.36-2.4s-1.51-.96-2.6-.96c-.75,0-1.64.21-2.68.64-1.01.43-2.01.95-3,1.56-.96.59-1.73,1.12-2.32,1.6-.13.11-.28.21-.44.32s-.35.16-.56.16c-.27,0-.45-.08-.56-.24-.08-.19-.15-.37-.2-.56-.13-.45-.23-.95-.28-1.48-.03-.53-.07-1.04-.12-1.52,1.65-.8,3.35-1.43,5.08-1.88s3.52-.68,5.36-.68c2.69,0,4.87.65,6.52,1.96,1.68,1.31,2.52,3.39,2.52,6.24Zm-5.24-11.56c0,.24-.13.39-.4.44-.27.03-.48.04-.64.04-.61,0-1.23-.04-1.84-.12-.59-.11-1.19-.23-1.8-.36-.21-.05-.64-.19-1.28-.4-.61-.21-1.28-.45-2-.72-.69-.29-1.29-.57-1.8-.84-.51-.29-.76-.55-.76-.76,0-.08.11-.27.32-.56.21-.32.47-.65.76-1,.32-.37.61-.71.88-1,.27-.29.44-.48.52-.56.21-.16.44-.24.68-.24.16,0,.29.04.4.12.19.11.43.32.72.64.29.29.52.52.68.68.67.75,1.4,1.43,2.2,2.04.83.59,1.65,1.15,2.48,1.68.16.11.35.23.56.36.21.13.32.32.32.56Zm32.28,16.44l-.08,7.68c1.01-.13,2.01-.33,3-.6,1.01-.27,2-.57,2.96-.92-.53-.61-1.04-1.24-1.52-1.88-.48-.64-.95-1.29-1.4-1.96,1.12-.37,2.24-.75,3.36-1.12,1.12-.37,2.23-.77,3.32-1.2h-9.64Zm-2.6-12.64v-2.64h-2.96v2.64h2.96Zm0-4.28v-2.52h-2.96v2.52h2.96Zm6.96,4.28v-2.64h-2.6v2.64h2.6Zm0-4.28v-2.52h-2.6v2.52h2.6Zm7.72-2.52h-3.32v2.52h.2c.08-.29.24-.52.48-.68.27-.19.55-.28.84-.28.37,0,.68.13.92.4.24.24.36.55.36.92,0,.51-.16.85-.48,1.04-.32.16-.69.24-1.12.24h-1.2v2.64h.56c.93,0,1.63-.25,2.08-.76.45-.53.68-1.25.68-2.16v-3.88Zm8.76,30c0,.45-.2.84-.6,1.16-.37.35-.79.52-1.24.52-2.43,0-4.6-.44-6.52-1.32-1.89-.85-3.71-2.09-5.44-3.72-1.55,1.47-3.33,2.52-5.36,3.16-2.03.64-4.07,1.11-6.12,1.4l.08-11.76h-2.04c-.27,2.11-.83,4.07-1.68,5.88-.85,1.79-2.16,3.35-3.92,4.68-.35.27-.81.55-1.4.84-.59.32-1.11.48-1.56.48-.11,0-.2-.05-.28-.16-.05-.08-.08-.16-.08-.24,0-.05.11-.23.32-.52.24-.27.48-.56.72-.88.27-.32.43-.53.48-.64,1.33-1.97,2.17-4.09,2.52-6.36.37-2.27.56-4.57.56-6.92,0-.91-.01-1.8-.04-2.68,0-.91-.01-1.81-.04-2.72h25.92c.03-.61.23-1.15.6-1.6.4-.48.92-.72,1.56-.72s1.16.17,1.64.52c.51.32.76.81.76,1.48,0,.72-.23,1.24-.68,1.56-.43.32-.97.48-1.64.48h-23.44v2c.03.67.04,1.35.04,2.04,0,.27-.01.55-.04.84,0,.27-.01.55-.04.84h21.96c.05-.53.28-.99.68-1.36.43-.37.91-.56,1.44-.56s1.03.17,1.48.52c.45.32.68.76.68,1.32s-.2.99-.6,1.36c-.37.35-.83.52-1.36.52h-4.44c.11.08.31.25.6.52s.57.53.84.8c.27.27.4.45.4.56,0,.19-.12.35-.36.48-.05.03-.37.07-.96.12-.59.05-1.28.11-2.08.16-.77.05-1.49.11-2.16.16-.67.03-1.11.05-1.32.08.99,1.55,2.19,3,3.6,4.36,1.44,1.36,2.97,2.47,4.6,3.32v-.04c.11-.53.33-.99.68-1.36.37-.35.85-.52,1.44-.52.53,0,.97.19,1.32.56.35.37.52.83.52,1.36Zm-6.96-15.92c0,.51-.19.91-.56,1.2-.35.27-.76.4-1.24.4h-15.4v-1.72h13.72c.08-.4.29-.73.64-1s.72-.4,1.12-.4.79.15,1.16.44c.37.29.56.65.56,1.08Zm2.88-10c0,1.25-.31,2.19-.92,2.8-.61.59-1.39.97-2.32,1.16-.93.19-1.91.28-2.92.28h-20.64V3.92h7.44V.48h4.36v3.44h2.6V.52h4.4v3.4h8v5.8Zm29.88,8.4h-8.24v2.96h6.64c.59,0,1-.17,1.24-.52s.36-.79.36-1.32v-1.12Zm6.8,11.64c0,.4-.16.76-.48,1.08-.29.32-.65.48-1.08.48-.83,0-1.71-.28-2.64-.84-.93-.56-1.8-1.21-2.6-1.96-.8-.77-1.45-1.47-1.96-2.08v6.04h-4.4v-6.64c-1.07,1.01-2.25,1.89-3.56,2.64-1.28.75-2.65,1.27-4.12,1.56-.03,0-.07.01-.12.04h-.16c-.08,0-.17-.01-.28-.04-.08-.05-.12-.13-.12-.24,0-.16.09-.31.28-.44,1.31-.96,2.51-1.99,3.6-3.08,1.09-1.12,2.07-2.36,2.92-3.72h-4.44v-6h16.6v2.56c0,1.09-.4,1.95-1.2,2.56-.77.59-1.67.88-2.68.88h-2.32v2.8c1.09-.53,2.17-1.09,3.24-1.68,1.07-.61,2.08-1.29,3.04-2.04.16.13.44.37.84.72s.77.71,1.12,1.08c.35.37.52.65.52.84s-.07.32-.2.4c-.11.08-.4.16-.88.24-.48.05-1.03.12-1.64.2-.59.05-1.15.11-1.68.16-.51.05-.87.09-1.08.12.29.61.69,1.32,1.2,2.12.53.8,1.04,1.45,1.52,1.96.11-.29.28-.53.52-.72.27-.21.56-.32.88-.32.37,0,.69.13.96.4.27.24.4.55.4.92Zm-.12-16.72c0,.53-.17.96-.52,1.28-.35.32-.79.48-1.32.48h-18.92v-1.64h7.76v-2.72h-5.68v-1.68h5.68v-3h4.4v3h2.4c0-.53.19-.97.56-1.32.4-.37.87-.56,1.4-.56.45,0,.88.19,1.28.56.4.37.6.79.6,1.24,0,.53-.21.96-.64,1.28-.4.32-.85.48-1.36.48h-4.24v2.72h4.84c.05-.53.25-.97.6-1.32.35-.37.79-.56,1.32-.56.48,0,.91.17,1.28.52.37.35.56.76.56,1.24Zm.96-8h-22.44l-.08,28.68h17.8c1.28,0,2.25-.29,2.92-.88.69-.61,1.16-1.4,1.4-2.36.27-.99.4-2.01.4-3.08V5.04Zm4.84,22.08c0,3.17-.72,5.41-2.16,6.72-1.44,1.33-3.73,2-6.88,2h-22.88l.08-32.96h31.84v24.24Z"/><path class="cls-1" d="m77.29,52.09c0,.13-.06.2-.17.2h-.1s-.05-.03-.07-.07c0-.02-.02-.06-.04-.13,0-.07-.01-.13-.01-.15-.05-.28-.12-.59-.21-.92-.08-.35-.22-.63-.41-.84-.09-.11-.25-.19-.48-.22-.22-.04-.45-.06-.69-.06h-1.06c-.2,0-.37.04-.53.11-.15.07-.22.22-.22.45,0,1.41,0,2.82.01,4.24.02,1.41.03,2.82.03,4.24,0,.12.05.21.15.28.1.06.22.09.35.11.13.02.24.03.32.03h.2c.07,0,.13-.01.2-.01.09,0,.14.04.14.13v.17c0,.07-.03.1-.1.1-.34,0-.67,0-1.01-.01-.33-.02-.66-.03-.99-.03-.45,0-.91.01-1.37.04-.1,0-.21,0-.32.01s-.22.01-.32.01c-.08,0-.13-.05-.13-.15,0-.11.01-.18.04-.21s.09-.04.2-.04c.02,0,.04,0,.06.01h.06c.1,0,.23,0,.39-.03s.3-.06.42-.11c.13-.07.2-.16.2-.29,0-.72.01-1.44.01-2.16,0-.72.01-1.44.01-2.16s0-1.41-.01-2.11c0-.71-.01-1.42-.01-2.13,0-.11-.05-.21-.14-.31-.08-.09-.18-.14-.28-.15-.08-.02-.17-.03-.27-.03h-1.51c-.34,0-.59.08-.76.25-.16.16-.27.37-.34.63-.07.25-.13.51-.18.78,0,.02-.01.08-.04.2-.02.1-.04.21-.07.31-.02.09-.03.14-.04.15-.04.05-.09.07-.17.07-.1,0-.15-.05-.15-.15v-.14c0-.07.02-.14.03-.22.02-.21.03-.47.04-.77.02-.31.03-.59.04-.85,0-.09.01-.19.01-.28s0-.18.01-.25c0-.13.08-.19.24-.17.68.07,1.37.1,2.06.1.7,0,1.39-.01,2.07-.01h2.34c.39,0,.78-.02,1.18-.03.17,0,.34-.01.52-.01.19,0,.37-.01.55-.01.12,0,.19.05.21.14,0,.03.02.13.03.31,0,.17.02.36.03.59,0,.21.01.42.01.62,0,.19.01.32.01.39,0,.09.02.19.03.28s.01.19.01.29Zm5.19,5.99c-.04-.42-.06-.84-.07-1.26,0-.43,0-.86-.01-1.29h-.2c-.29,0-.61.05-.97.14-.35.08-.68.21-.99.39-.32.18-.58.4-.78.67-.2.26-.29.56-.29.91,0,.45.13.79.38,1.02.25.22.59.34,1.02.34.21,0,.43-.05.67-.14.24-.1.48-.22.7-.36.22-.14.41-.28.55-.42Zm2.45.9s0,.07-.01.08c-.09.21-.25.36-.48.48-.21.1-.43.15-.64.15-.39,0-.68-.11-.85-.34-.17-.23-.3-.52-.41-.85-.35.33-.75.6-1.18.83-.43.21-.89.32-1.39.32-.35,0-.67-.07-.98-.2-.3-.14-.54-.34-.73-.6-.19-.26-.28-.58-.28-.95,0-.39.1-.73.29-1.01.21-.29.46-.53.77-.73.32-.21.65-.37,1.01-.49.36-.13.7-.23,1.02-.29.21-.05.43-.09.66-.13.22-.04.44-.07.66-.11,0-.26-.01-.56-.04-.91-.02-.35-.09-.63-.21-.85-.12-.21-.28-.41-.49-.57s-.43-.25-.69-.25c-.43,0-.77.11-1.01.34-.24.22-.42.54-.52.95,0,.05-.02.1-.03.15,0,.05,0,.09-.01.14,0,.06-.05.11-.11.15-.06.04-.12.06-.18.06-.18,0-.34-.04-.49-.13-.14-.08-.21-.22-.21-.42,0-.11.02-.21.06-.29.12-.29.32-.53.59-.71.27-.2.57-.35.9-.45.34-.1.65-.15.94-.15.5,0,.96.09,1.37.28.41.19.74.46.98.83.25.35.38.8.38,1.34,0,.61,0,1.22-.01,1.83,0,.62.02,1.23.06,1.85,0,.21.05.39.13.55.07.15.23.22.46.22.12,0,.25-.03.38-.08.14-.07.23-.1.27-.1.03,0,.04.02.04.07Zm5.19.1c0,.08-.07.17-.2.25-.12.08-.27.16-.45.22-.18.07-.35.12-.52.15-.16.04-.28.06-.35.06-.49,0-.86-.06-1.13-.18-.26-.12-.45-.32-.56-.6-.1-.28-.15-.66-.15-1.13v-2.32c0-.78.02-1.56.03-2.34h-1.01c-.07,0-.12.02-.17.06-.04.03-.08.04-.13.04s-.07-.03-.07-.1c0-.04.02-.11.07-.22.06-.11.09-.19.11-.22.03,0,.07.01.13.01h1.09v-1.78c.23-.14.42-.29.6-.46.18-.18.35-.35.53-.53.02-.02.04-.03.06-.04.02-.02.04-.03.06-.03.08,0,.13.03.13.1l-.08,2.73c.3,0,.59,0,.88-.01.3,0,.59-.01.88-.01.12,0,.18.07.18.21,0,.18-.08.27-.24.27h-1.71c0,.71,0,1.42-.01,2.14v3.22c0,.23.1.4.29.49.2.08.39.13.57.13.26,0,.52-.04.77-.13.03-.02.07-.04.13-.06s.1-.03.13-.03c.09,0,.14.04.14.13Zm5.83-4.27c0-.38-.04-.75-.1-1.09-.06-.35-.19-.64-.41-.87-.21-.23-.56-.35-1.05-.35-.44,0-.8.12-1.08.36-.27.23-.48.53-.63.9-.15.35-.26.72-.34,1.09.23,0,.46.02.69.03h.67c.37,0,.75,0,1.12-.01.37-.02.75-.04,1.12-.06Zm1.61,3.21s0,.07-.03.08c-.03.09-.1.21-.21.34-.1.13-.22.26-.35.38-.13.11-.24.2-.32.25-.31.21-.66.39-1.05.52-.38.13-.76.2-1.15.2-.32,0-.67-.05-1.06-.15-.38-.1-.71-.24-.98-.42-.52-.35-.91-.8-1.15-1.36-.24-.56-.36-1.14-.36-1.75,0-.69.14-1.33.41-1.92.27-.59.71-1.06,1.3-1.43.27-.16.57-.29.91-.39.34-.11.66-.17.97-.17.55,0,1.04.11,1.46.34.42.22.75.54.98.95.24.4.36.88.36,1.44,0,.16-.04.26-.11.31-.06.05-.17.07-.31.07-.19,0-.37,0-.56-.01-.19,0-.37-.02-.56-.03-.26-.02-.52-.03-.78-.03h-1.72c-.32,0-.63,0-.95.03,0,.15-.02.29-.03.43,0,.14-.01.28-.01.43,0,.35.04.7.13,1.08.08.36.22.7.41,1.02.19.31.42.56.71.76.29.19.64.28,1.05.28s.82-.07,1.2-.2c.38-.13.73-.34,1.05-.63.08-.08.16-.17.22-.27.08-.1.15-.19.24-.27.05-.05.1-.07.15-.07.05,0,.08.02.11.06s.04.08.04.13Zm6.1-.29c0,.42-.09.77-.28,1.04-.19.26-.43.46-.73.6-.3.14-.62.24-.98.29-.36.06-.7.08-1.04.08-.31,0-.62-.03-.92-.1-.3-.07-.6-.11-.91-.14-.07-.25-.13-.5-.2-.76-.06-.25-.12-.5-.2-.74,0-.03-.03-.09-.07-.2-.03-.1-.04-.16-.04-.17,0-.07.02-.13.07-.15.05-.04.1-.06.17-.06s.11.02.14.07c.06.07.1.15.14.27.05.11.09.21.13.29.08.15.14.27.2.35.06.07.15.17.27.29.36.38.82.57,1.36.57.3,0,.57-.03.81-.1.25-.07.45-.19.6-.36.15-.19.22-.45.22-.8,0-.3-.09-.55-.28-.74-.19-.21-.43-.39-.73-.55-.29-.16-.6-.31-.92-.46-.33-.15-.64-.31-.94-.49-.29-.19-.53-.41-.71-.67-.19-.26-.28-.58-.28-.95,0-.46.12-.83.35-1.12.24-.29.55-.5.92-.64.37-.15.76-.22,1.16-.22.26,0,.5.03.7.1.21.07.44.14.67.22.08.03.15.05.22.06.08,0,.15.01.22.01h.13s.08,0,.11-.01c.03.17.05.34.07.52.03.17.05.34.07.52,0,.07.02.14.03.24.02.08.03.16.03.24,0,.07-.01.14-.04.21-.03.07-.08.1-.17.1-.07,0-.12,0-.17-.01-.04-.02-.07-.06-.1-.13-.05-.09-.09-.19-.13-.29-.03-.11-.06-.21-.1-.31-.12-.33-.33-.59-.63-.78-.3-.21-.62-.31-.97-.31-.44,0-.77.13-.99.39-.22.25-.34.59-.34,1.02,0,.15.04.29.11.43.08.14.18.26.28.36.2.19.42.33.69.43.27.1.53.21.77.31.32.14.64.31.98.5.35.2.64.43.87.71.24.28.36.62.36,1.02Zm9.22,1.85s-.02.08-.07.11c-.05.02-.09.03-.14.03-.23,0-.47,0-.71-.01-.23-.02-.47-.03-.71-.03-.27,0-.55,0-.83.03-.27.02-.54.03-.81.03-.05,0-.08-.03-.1-.08,0-.07-.01-.12-.01-.15,0-.07.03-.1.1-.1.1,0,.2,0,.29.01h.29c.12,0,.21-.04.28-.11.07-.08.12-.18.13-.29.02-.23.02-.47.01-.7v-3.19c0-.28,0-.56-.03-.84,0-.12-.02-.24-.04-.35,0-.12-.03-.24-.07-.35-.09-.25-.25-.44-.46-.57-.21-.14-.44-.21-.71-.21-.32,0-.63.08-.94.25-.31.16-.56.36-.77.6-.22.26-.39.49-.49.69-.1.2-.17.4-.2.62-.02.21-.03.49-.03.84v2.46c0,.1,0,.25-.01.43,0,.19.02.35.07.5.06.15.16.22.32.22.09,0,.18,0,.27-.01s.17-.01.27-.01c.08,0,.13.05.13.14,0,.05,0,.09-.03.14,0,.04-.04.06-.1.06-.32,0-.64,0-.98-.01-.33-.02-.65-.03-.98-.03-.3,0-.6.01-.91.04-.04,0-.07,0-.1.01h-.1s-.08-.02-.11-.07c-.02-.06-.03-.1-.03-.14,0-.1.05-.15.15-.15.06,0,.11,0,.17.01h.18c.13,0,.27-.02.41-.06.15-.05.23-.15.24-.32.02-.31.02-.62.01-.92v-2.63c.01-.57.01-1.14.01-1.71,0-.6,0-1.19-.01-1.78,0-.6-.02-1.19-.03-1.79,0-.1-.02-.21-.06-.34-.04-.13-.12-.2-.25-.2s-.27,0-.41.03-.28.03-.42.03c-.08,0-.13-.04-.13-.11,0-.08.04-.14.13-.17.19-.05.37-.08.55-.11.19-.03.37-.06.55-.1.16-.04.35-.09.56-.15.22-.07.41-.11.56-.11.06,0,.09.02.1.06.01.03.01.07.01.11v2.3c0,.77,0,1.53-.03,2.3.21-.21.45-.43.74-.64.3-.21.62-.39.95-.53.34-.15.65-.22.95-.22.61,0,1.08.09,1.43.27.35.18.59.45.73.83.14.36.21.84.21,1.43,0,.7,0,1.4-.01,2.1v2.09c0,.15.04.26.11.32.08.06.2.08.35.08.07,0,.13,0,.18-.01.07,0,.13-.01.2-.01.05,0,.09.02.13.07.04.04.06.08.06.13Zm4.57-.06s-.01.09-.04.14c-.03.04-.07.06-.11.06-.26,0-.52,0-.78-.01-.25-.02-.51-.03-.78-.03h-.38c-.28,0-.56,0-.84.03-.27,0-.54.01-.81.01-.04,0-.07-.02-.08-.07-.01-.05-.01-.08-.01-.11,0-.05,0-.08.01-.1,0-.03.04-.05.08-.06.05-.02.1-.02.15-.01h.18c.07,0,.13,0,.18.01h.18c.13,0,.25-.03.35-.08.11-.07.17-.17.17-.32v-5.6c0-.16-.03-.28-.08-.36-.06-.09-.17-.14-.35-.14-.13,0-.27,0-.41.03-.13,0-.26.02-.39.04-.08,0-.11-.04-.11-.13,0-.09.04-.15.11-.18.11-.04.23-.06.35-.07.13-.02.25-.04.36-.06.26-.05.52-.1.78-.15.26-.06.52-.12.77-.18.03,0,.07-.01.11-.01.1,0,.15.06.15.17,0,1.1,0,2.21-.01,3.32v3.33c0,.15.07.26.2.32.14.06.27.08.39.08.09,0,.19,0,.28-.01.1,0,.2-.01.29-.01.04,0,.06.02.07.07,0,.05.01.08.01.1Zm-1.13-9.69c0,.23-.08.43-.25.6-.17.16-.37.24-.6.24s-.43-.08-.6-.24c-.17-.17-.25-.37-.25-.6s.08-.43.25-.59c.17-.17.37-.25.6-.25s.43.08.6.25c.17.16.25.35.25.59Zm10.15,9.69c0,.12-.07.18-.21.18-.21,0-.41,0-.63-.01-.22-.02-.43-.03-.64-.03-.32,0-.64,0-.98.03-.33,0-.65.01-.98.01-.04,0-.06-.03-.07-.08,0-.07-.01-.12-.01-.15,0-.07.05-.11.14-.11h.22s.09,0,.14.01h.15c.27,0,.42-.14.45-.41.03-.55.04-1.11.03-1.67v-2.3c0-.21-.02-.48-.04-.78-.02-.32-.06-.57-.13-.77-.15-.49-.48-.73-.98-.73-.46,0-.88.12-1.26.35s-.71.53-.99.88c0,.68-.01,1.36-.01,2.03v2.98c0,.14.06.24.18.31s.24.1.36.1c.08,0,.15,0,.21-.01.07-.02.15-.03.21-.03.04,0,.06.02.07.07s.01.08.01.11c0,.04-.01.08-.04.13-.02.05-.06.07-.11.07-.21,0-.41,0-.62-.01-.2-.02-.4-.03-.6-.03-.32,0-.63,0-.95.03-.32,0-.64.01-.97.01-.05,0-.07-.03-.08-.08v-.15c0-.07.04-.11.13-.11h.2s.09,0,.14.01h.14c.27,0,.42-.14.45-.41,0-.13.01-.26.01-.39v-2.8c0-.81,0-1.62-.01-2.42,0-.13-.03-.26-.08-.39s-.16-.2-.32-.2c-.12,0-.24.02-.35.06s-.23.06-.35.06c-.07,0-.1-.05-.1-.14v-.06s.02-.05.03-.06c0,0,.02-.01.04-.01.02,0,.03-.02.04-.03.17-.05.34-.08.52-.1.19-.02.36-.05.53-.08.16-.03.31-.07.46-.11.15-.06.3-.08.45-.08.07,0,.12.03.15.1.05.08.08.21.11.36.03.15.05.3.06.46.02.16.03.29.03.39.21-.21.45-.41.73-.6.29-.21.59-.37.9-.5.32-.14.62-.21.92-.21.86,0,1.44.19,1.74.57.31.37.46.97.46,1.78,0,.73,0,1.46-.01,2.18v2.18c0,.18.05.3.15.36.11.06.24.08.39.08.07,0,.15,0,.22-.01.07-.02.14-.03.21-.03.06,0,.09.02.11.07.03.04.04.08.04.13Zm5.28-1.43c-.04-.42-.06-.84-.07-1.26,0-.43,0-.86-.01-1.29h-.2c-.29,0-.61.05-.97.14-.35.08-.68.21-.99.39-.32.18-.58.4-.78.67-.2.26-.29.56-.29.91,0,.45.13.79.38,1.02.25.22.59.34,1.02.34.21,0,.43-.05.67-.14.24-.1.48-.22.7-.36s.41-.28.55-.42Zm2.45.9s0,.07-.01.08c-.09.21-.25.36-.48.48-.21.1-.43.15-.64.15-.39,0-.68-.11-.85-.34-.17-.23-.3-.52-.41-.85-.35.33-.75.6-1.18.83-.43.21-.89.32-1.39.32-.35,0-.67-.07-.98-.2-.3-.14-.54-.34-.73-.6-.19-.26-.28-.58-.28-.95,0-.39.1-.73.29-1.01.2-.29.46-.53.77-.73.32-.21.65-.37,1.01-.49.36-.13.7-.23,1.02-.29.21-.05.43-.09.66-.13s.44-.07.66-.11c0-.26-.01-.56-.04-.91-.02-.35-.09-.63-.21-.85-.12-.21-.29-.41-.49-.57-.21-.17-.43-.25-.69-.25-.43,0-.77.11-1.01.34-.24.22-.42.54-.52.95,0,.05-.02.1-.03.15,0,.05,0,.09-.01.14,0,.06-.05.11-.11.15-.06.04-.12.06-.18.06-.18,0-.34-.04-.49-.13-.14-.08-.21-.22-.21-.42,0-.11.02-.21.06-.29.12-.29.32-.53.59-.71.27-.2.57-.35.9-.45.34-.1.65-.15.94-.15.5,0,.96.09,1.37.28.41.19.74.46.98.83.25.35.38.8.38,1.34,0,.61,0,1.22-.01,1.83,0,.62.02,1.23.06,1.85,0,.21.05.39.13.55.07.15.23.22.46.22.12,0,.25-.03.38-.08.14-.07.23-.1.27-.1.03,0,.04.02.04.07Zm14.28-3.57c0,.06-.01.11-.04.15s-.07.07-.14.07h-.87v3c-.65.22-1.3.47-1.95.74-.31.13-.64.21-.98.25-.34.04-.67.06-.99.06-.28,0-.59-.03-.94-.1s-.68-.16-1.01-.28c-.32-.12-.6-.26-.84-.42-.71-.48-1.24-1.09-1.58-1.85-.34-.76-.5-1.56-.5-2.41,0-.72.11-1.4.34-2.03.23-.63.57-1.19.99-1.68s.94-.86,1.54-1.13c.61-.28,1.28-.42,2.03-.42.55,0,1.08.07,1.58.22.08.03.22.07.41.13s.37.11.56.17c.19.05.31.07.38.07.2,0,.33-.02.41-.07.07-.06.13-.12.17-.18.05-.07.11-.12.2-.15h.11c.07,0,.12.04.13.13.02.09.02.19.01.29v.31c0,.29,0,.58.01.87.02.29.03.58.03.88,0,.11,0,.24-.01.39,0,.15-.08.22-.25.22-.06,0-.11,0-.15-.01-.04-.02-.07-.05-.11-.1,0-.02-.03-.07-.07-.15-.04-.09-.08-.19-.11-.28-.04-.1-.07-.17-.08-.21-.25-.57-.62-1.05-1.11-1.43-.25-.21-.57-.37-.97-.49-.38-.12-.74-.18-1.06-.18-.62,0-1.16.15-1.6.46-.44.3-.79.69-1.06,1.18s-.47,1.01-.59,1.57-.18,1.1-.18,1.62c0,.55.07,1.09.2,1.62s.33,1.01.6,1.44c.28.43.64.77,1.09,1.04.45.25.99.38,1.61.38.19,0,.41-.02.67-.06s.52-.1.78-.2c.26-.09.48-.22.64-.38.18-.16.27-.36.27-.6v-1.85c0-.15-.07-.24-.22-.28-.14-.05-.26-.07-.36-.07-.14,0-.28,0-.42.03-.14,0-.28.01-.42.01-.07,0-.13-.02-.15-.07-.02-.05-.03-.1-.03-.17,0-.06,0-.11.03-.15.02-.06.07-.08.14-.08.15,0,.29,0,.43.01h1.9c.16,0,.32,0,.48-.01.16,0,.31,0,.46-.01.15-.02.3-.03.45-.03.06,0,.1.03.13.08.03.05.04.09.04.14Zm6.85.62c0-.4-.03-.8-.1-1.2-.06-.41-.17-.79-.34-1.13-.16-.35-.39-.62-.7-.83-.31-.21-.71-.32-1.2-.32-.47,0-.85.11-1.15.34-.29.22-.52.51-.69.87-.16.35-.27.74-.34,1.15-.06.41-.08.8-.08,1.16,0,.4.03.8.08,1.2.07.4.18.77.35,1.09.17.32.41.57.71.77.32.2.72.29,1.22.29s.87-.1,1.16-.31c.3-.21.52-.48.67-.81.16-.34.26-.7.31-1.09.06-.4.08-.79.08-1.18Zm1.44.04c0,.7-.17,1.33-.5,1.89-.33.56-.78,1-1.34,1.33-.56.33-1.19.49-1.89.49s-1.3-.16-1.85-.49c-.55-.34-.99-.78-1.32-1.33-.33-.56-.49-1.18-.49-1.86s.16-1.34.48-1.93c.32-.6.75-1.08,1.3-1.44.56-.36,1.2-.55,1.93-.55.78,0,1.45.17,2,.5.55.33.97.78,1.25,1.37.29.58.43,1.25.43,2.02Zm5.74,3.01c0,.08-.07.17-.2.25-.12.08-.27.16-.45.22s-.35.12-.52.15c-.16.04-.27.06-.35.06-.49,0-.86-.06-1.13-.18-.26-.12-.45-.32-.56-.6-.1-.28-.15-.66-.15-1.13v-2.32c0-.78.02-1.56.03-2.34h-1.01c-.07,0-.12.02-.17.06-.04.03-.08.04-.13.04s-.07-.03-.07-.1c0-.04.02-.11.07-.22.06-.11.09-.19.11-.22.03,0,.07.01.13.01h1.09v-1.78c.23-.14.43-.29.6-.46.18-.18.35-.35.53-.53.02-.02.04-.03.06-.04.02-.02.04-.03.06-.03.08,0,.13.03.13.1l-.08,2.73c.3,0,.59,0,.88-.01.3,0,.59-.01.88-.01.12,0,.18.07.18.21,0,.18-.08.27-.24.27h-1.71c0,.71,0,1.42-.01,2.14v3.22c0,.23.1.4.29.49.2.08.39.13.57.13.26,0,.52-.04.77-.13.03-.02.07-.04.13-.06s.1-.03.13-.03c.09,0,.14.04.14.13Zm6.71-3.05c0-.4-.03-.8-.1-1.2-.06-.41-.17-.79-.34-1.13-.16-.35-.39-.62-.7-.83-.31-.21-.71-.32-1.2-.32-.47,0-.85.11-1.15.34-.29.22-.52.51-.69.87-.16.35-.27.74-.34,1.15-.06.41-.08.8-.08,1.16,0,.4.03.8.08,1.2.07.4.18.77.35,1.09.17.32.41.57.71.77.32.2.72.29,1.22.29s.87-.1,1.16-.31c.3-.21.52-.48.67-.81.16-.34.26-.7.31-1.09.06-.4.08-.79.08-1.18Zm1.44.04c0,.7-.17,1.33-.5,1.89-.33.56-.77,1-1.34,1.33-.56.33-1.19.49-1.89.49s-1.3-.16-1.85-.49c-.55-.34-.99-.78-1.32-1.33-.33-.56-.49-1.18-.49-1.86s.16-1.34.48-1.93c.32-.6.75-1.08,1.3-1.44.56-.36,1.2-.55,1.93-.55.78,0,1.45.17,2,.5.55.33.97.78,1.25,1.37.29.58.43,1.25.43,2.02Zm12.56-4.61c0,.08-.03.15-.1.21-.06.05-.12.07-.2.07-.09,0-.15-.02-.18-.06-.03-.05-.06-.11-.08-.18-.16-.5-.4-.88-.73-1.12-.33-.24-.76-.36-1.3-.36h-2.55v4.21c.43,0,.86-.01,1.29-.01.43,0,.86-.03,1.29-.07.28-.02.55-.05.83-.1.27-.05.54-.09.81-.14h.03s.04,0,.06.03c.03,0,.04.02.04.04,0,.07-.03.18-.1.35-.07.16-.11.27-.14.34-.05.11-.12.17-.21.17h-.21c-.07,0-.14-.02-.21-.03-.33-.04-.66-.06-.99-.06-.33,0-.65-.01-.98-.01h-.43c-.17,0-.34.01-.5.04-.16.03-.29.09-.41.18-.1.08-.15.21-.15.39v3.16c0,.1.02.2.07.29.06.08.12.16.2.24.14.12.31.2.52.22.21.02.41.03.59.03.13,0,.2.07.2.21,0,.15-.08.22-.25.22-.15,0-.3,0-.46-.01-.16-.02-.32-.03-.48-.03h-.57c-.19,0-.37-.01-.56-.01-.32,0-.63.01-.95.04-.31.02-.63.03-.95.03-.04,0-.08-.01-.13-.04-.04-.04-.06-.08-.06-.13,0-.07,0-.12.01-.15.02-.05.07-.07.14-.08.07-.02.15-.03.24-.03.08,0,.16-.02.24-.03.35-.07.56-.21.64-.41.09-.21.14-.47.14-.78v-7.49c0-.21-.07-.35-.22-.42-.15-.07-.33-.1-.53-.1h-.5c-.18,0-.27-.08-.27-.24,0-.07,0-.14.03-.2.03-.06.08-.08.17-.08.17,0,.34,0,.5.01.18,0,.35.01.52.01h2.46c.47,0,.93,0,1.4-.01.48-.02.95-.03,1.41-.03.43,0,.86-.01,1.29-.04.05.28.11.61.18.98.08.37.13.7.13.97Zm5.2,6.62c-.04-.42-.06-.84-.07-1.26,0-.43,0-.86-.01-1.29h-.2c-.29,0-.61.05-.97.14-.35.08-.68.21-.99.39-.32.18-.58.4-.78.67-.2.26-.29.56-.29.91,0,.45.13.79.38,1.02.25.22.59.34,1.02.34.21,0,.43-.05.67-.14.24-.1.48-.22.7-.36s.41-.28.55-.42Zm2.45.9s0,.07-.01.08c-.09.21-.25.36-.48.48-.21.1-.43.15-.64.15-.39,0-.68-.11-.85-.34-.17-.23-.3-.52-.41-.85-.35.33-.75.6-1.18.83-.43.21-.89.32-1.39.32-.35,0-.67-.07-.98-.2-.3-.14-.54-.34-.73-.6-.19-.26-.28-.58-.28-.95,0-.39.1-.73.29-1.01.21-.29.46-.53.77-.73.32-.21.65-.37,1.01-.49.36-.13.7-.23,1.02-.29.21-.05.43-.09.66-.13s.44-.07.66-.11c0-.26-.01-.56-.04-.91-.02-.35-.09-.63-.21-.85-.12-.21-.29-.41-.49-.57-.21-.17-.43-.25-.69-.25-.43,0-.77.11-1.01.34-.24.22-.42.54-.52.95-.01.05-.02.1-.03.15,0,.05,0,.09-.01.14,0,.06-.05.11-.11.15-.06.04-.12.06-.18.06-.18,0-.34-.04-.49-.13-.14-.08-.21-.22-.21-.42,0-.11.02-.21.06-.29.12-.29.32-.53.59-.71.27-.2.57-.35.9-.45.34-.1.65-.15.94-.15.5,0,.96.09,1.37.28.41.19.74.46.98.83.25.35.38.8.38,1.34,0,.61,0,1.22-.01,1.83,0,.62.02,1.23.06,1.85,0,.21.05.39.13.55.07.15.23.22.46.22.12,0,.25-.03.38-.08.14-.07.23-.1.27-.1.03,0,.04.02.04.07Zm6.19-5.49c0,.09-.04.18-.11.27-.07.07-.15.11-.25.11-.14,0-.24-.05-.31-.14-.06-.09-.11-.2-.15-.32-.04-.12-.1-.23-.18-.32s-.22-.14-.42-.14h-.11s-.06,0-.1.01c-.16.03-.33.13-.52.29-.19.17-.37.37-.55.6-.17.22-.31.45-.42.67s-.17.41-.18.56c0,.15-.01.3-.01.45v1.93c0,.5.01,1,.01,1.5,0,.14.06.24.17.31.12.06.24.08.36.08.09,0,.19,0,.28-.01.09,0,.19-.01.28-.01.05,0,.08.02.1.07.02.04.03.07.03.11,0,.15-.07.22-.22.22-.28,0-.56,0-.84-.01-.28-.02-.56-.03-.84-.03s-.58,0-.88.03c-.29.02-.58.03-.88.03-.04,0-.07-.03-.08-.08,0-.06-.01-.1-.01-.14,0-.09.04-.14.11-.15.1-.02.21-.02.32-.01s.22.01.31.01c.14,0,.25-.03.34-.08.09-.07.15-.17.15-.32.02-.3.03-.6.03-.91,0-.31.01-.62.01-.92v-1.36c0-.4-.01-.8-.01-1.19,0-.4,0-.8-.04-1.19,0-.19-.06-.32-.15-.39-.09-.08-.23-.13-.42-.13-.07,0-.15,0-.24.03-.07,0-.15.01-.24.01-.07,0-.11-.06-.11-.17,0-.07.03-.11.1-.14.09-.03.19-.05.29-.06.1-.02.2-.03.29-.04.25-.05.5-.09.76-.14s.5-.1.76-.17c.08.03.15.08.18.15.02.04.03.14.04.31s.01.36.01.59v1.01c.21-.33.44-.65.7-.98.26-.33.56-.6.9-.81s.71-.32,1.13-.32c.22,0,.37.07.43.21s.11.3.13.49c.02.1.03.21.04.32.02.11.03.22.03.32Zm12.89,6.05c0,.13-.05.2-.15.2-.26,0-.53,0-.8-.03-.27-.02-.54-.03-.81-.03s-.55,0-.83.03c-.27.02-.54.03-.81.03-.04,0-.07-.02-.08-.07,0-.05-.01-.08-.01-.11,0-.08.04-.14.13-.15.09-.02.19-.02.29-.01.11,0,.2.01.25.01.13,0,.24-.03.32-.1.08-.07.13-.16.13-.29,0-.63,0-1.25.01-1.86.02-.62.03-1.23.03-1.85v-.31c0-.1,0-.21-.01-.31,0-.22-.02-.45-.04-.69-.01-.24-.05-.47-.11-.67-.07-.21-.18-.39-.34-.52-.16-.13-.39-.2-.69-.2-.22,0-.45.07-.71.2-.25.12-.49.27-.73.43-.23.17-.43.33-.59.48.02.13.03.27.03.41v1.22c0,.27.01.54.01.81,0,.48,0,.95-.01,1.43v1.43c0,.14.06.24.18.29.12.06.24.08.36.08.07,0,.15,0,.22-.01.08,0,.16-.01.22-.01.05,0,.07.02.08.07.02.05.03.08.03.11,0,.05-.01.09-.04.14-.03.04-.07.06-.13.06-.26,0-.53,0-.8-.03-.26-.02-.53-.03-.8-.03s-.53,0-.8.03c-.27.02-.54.03-.81.03-.04,0-.07-.02-.08-.07-.02-.05-.03-.08-.03-.11,0-.07.04-.13.11-.15.07-.02.16-.02.27-.01.11,0,.2.01.28.01.13,0,.24-.03.32-.08.09-.07.14-.17.14-.31v-3.57c0-.2,0-.44-.01-.73,0-.29-.02-.57-.06-.85-.03-.29-.08-.52-.15-.69-.07-.17-.18-.3-.34-.39-.15-.09-.32-.14-.5-.14-.24,0-.49.06-.74.18s-.49.27-.71.45c-.22.18-.42.35-.57.53v5.19c0,.14.05.24.15.31.1.06.21.08.34.08.07,0,.15,0,.22-.01.07-.02.14-.03.21-.03.04,0,.06.03.07.08,0,.05.01.08.01.1,0,.05-.01.09-.04.14-.02.04-.06.06-.11.06-.18,0-.36,0-.53-.01-.18-.02-.35-.03-.53-.03-.35,0-.71,0-1.06.03-.35,0-.71.01-1.06.01-.04,0-.07-.02-.08-.07-.02-.05-.03-.08-.03-.11,0-.11.05-.17.14-.17.1,0,.2,0,.29.01h.28c.13,0,.24-.03.34-.08.09-.07.14-.17.14-.31,0-.94,0-1.89-.01-2.83v-2.84c0-.1,0-.21-.03-.31-.02-.1-.08-.17-.18-.21-.07-.03-.14-.04-.21-.04-.12,0-.24.02-.36.06-.12.03-.25.04-.38.04-.08,0-.13-.06-.13-.17,0-.07.03-.12.08-.14.05-.02.1-.03.15-.03.07,0,.13-.02.18-.03.21-.03.43-.06.64-.1.22-.05.44-.09.64-.14.07-.02.15-.04.24-.06s.17-.03.25-.03c.11,0,.19.08.22.25.05.16.07.33.07.52,0,.19.01.32.01.41.2-.17.41-.34.66-.52.24-.19.5-.35.77-.48.27-.13.54-.2.81-.2.48,0,.88.08,1.2.24.33.16.61.46.84.9.21-.18.44-.35.7-.53.26-.19.53-.34.81-.46.29-.13.57-.2.85-.2.62,0,1.08.09,1.4.27.33.18.55.45.66.83.12.36.18.84.18,1.41,0,.73,0,1.46-.01,2.2,0,.73-.01,1.46-.01,2.2,0,.14.06.24.18.29.13.06.26.08.38.08.07,0,.14,0,.21-.01.07,0,.14-.01.21-.01.04,0,.06.02.07.07.02.05.03.08.03.11Z"/></g></svg>