<?xml version="1.0" encoding="UTF-8"?><svg id="_レイヤー_2" xmlns="http://www.w3.org/2000/svg" viewBox="0 0 96 93.91"><defs><style>.cls-1{fill:#4d301a;}</style></defs><g id="_レイヤー_1-2"><path class="cls-1" d="m93.52,19.79l-7.97-3.41c-4.51-1.93-9.59-1.52-13.86.33l3.42-8.99c.75-1.99.58-4.1-.49-5.65-.9-1.3-2.36-2.07-3.92-2.07-1.11,0-2.2.39-3.15,1.13l-12.97,10.04s-.09.07-.13.12h-14.97c-.04-.05-.09-.08-.13-.12L26.4,1.13c-.96-.73-2.04-1.13-3.16-1.13-1.56,0-3.01.77-3.92,2.07-1.06,1.55-1.23,3.66-.47,5.65l3.08,8.12c-3.71-1.06-7.77-1.04-11.47.54l-7.97,3.41c-2.57,1.1-3.26,3.83-1.56,6.09l5.31,7.08c3.26,4.35,8.4,6.64,13.38,6.97l2.08,22.95c-1.06,1.27-1.82,2.77-2.19,4.39l-.86,3.85-.29,1.25c-.63,2.75-.13,5.58,1.42,7.98.77,1.22,1.8,2.28,2.99,3.13-.04.75.09,1.49.39,2.19l1.93,4.42c1.23,2.83,4.68,3.83,7.51,3.83h28.77c2.82,0,6.28-1,7.51-3.83l1.93-4.42c.3-.69.43-1.44.39-2.18,1.17-.85,2.19-1.91,2.97-3.14,1.55-2.4,2.04-5.23,1.43-7.97l-.29-1.27-.89-3.84c-.37-1.62-1.11-3.09-2.16-4.36l2.08-22.95c5.57.25,11.7-2.04,15.43-7l5.31-7.08c1.7-2.27,1.01-4.99-1.55-6.09Zm-28.25,68.72c-.38.85-2,1.47-3.91,1.47h-28.77c-1.9,0-3.52-.62-3.9-1.47l-1.31-2.99c.92.21,1.87.31,2.84.31h33.51c.97,0,1.93-.1,2.83-.3l-1.3,2.97Zm-34.61-6.61h-.43c-1.42,0-2.73-.31-3.88-.86-.66-.3-1.25-.68-1.77-1.13-.59-.5-1.1-1.06-1.49-1.69l-.37-4.08-.21-2.28.85-3.72c.76-3.38,4.13-5.81,8.02-5.81h31.19c3.91,0,7.25,2.42,8.02,5.81l.85,3.72-.2,2.25-.37,4.08s-.01.03-.03.04c-.39.62-.89,1.18-1.48,1.66-.52.46-1.11.84-1.77,1.14-1.14.55-2.45.86-3.87.86H30.65Zm13.18-39.08V14.17h6.26v28.66c0,5.6,1.68,11.05,4.81,15.58h-15.87c3.12-4.54,4.8-9.99,4.8-15.58ZM70.7,3.93c.77,0,1.22,1.09.72,2.4l-3.25,8.53c-2.37-1.56-5.05-2.62-7.85-3.16l9.63-7.47c.28-.21.52-.3.75-.3Zm-6.09,31.99s.01,0,.01.01c.72.31,1.32.84,1.73,1.51.35.58.56,1.26.56,1.98v1.86c0,2.1-1.7,3.8-3.8,3.8h-1.52c-2.11,0-3.81-1.7-3.81-3.8v-1.86c0-2.1,1.7-3.8,3.81-3.8h1.52c.52,0,1.03.1,1.49.3Zm-28.45,5.36c0,2.1-1.7,3.8-3.8,3.8h-1.52c-2.1,0-3.8-1.7-3.8-3.8v-1.86c0-.2.01-.39.05-.59.27-1.82,1.85-3.21,3.75-3.21h1.52c2.1,0,3.8,1.7,3.8,3.8v1.86Zm-10.39-26.42l-3.25-8.53c-.5-1.31-.05-2.4.72-2.4.22,0,.49.09.75.3l9.65,7.47c-2.82.54-5.49,1.6-7.86,3.16Zm49.75,12.02c.03-.31.04-.63.04-.94,0-1.27-.24-2.54-.71-3.72,1.56-.62,3.87-1.07,6.34-.03l3.13,1.34c1.61.69,2.06,2.42.98,3.87l-2.08,2.77c-1.56,2.08-3.64,2.88-5.11,3.18-1.07.22-2.18.26-3.18.1l.59-6.56Zm-57.09,0l.6,6.62c-.38-.03-.76-.08-1.14-.16-1.47-.3-3.54-1.1-5.1-3.18l-2.08-2.77c-1.09-1.44-.64-3.17.98-3.87l3.12-1.34c1.62-.69,3.18-.73,4.51-.5-.62,1.34-.93,2.78-.93,4.25,0,.31.01.63.04.94Z"/><path class="cls-1" d="m31.98,37.98h-.76c-1.05,0-1.9.85-1.9,1.91v.92c0,1.06.85,1.9,1.9,1.9h.76c1.05,0,1.9-.84,1.9-1.9v-.92c0-1.06-.85-1.91-1.9-1.91Zm-1.31,1.97c0-.52.43-.94.96-.94h.38c.24,0,.45.08.6.22l-1.74,1.74c-.13-.14-.2-.34-.2-.55v-.47h0Z"/><path class="cls-1" d="m60.08,39.89v.92c0,1.06.84,1.9,1.9,1.9h.76c1.05,0,1.9-.84,1.9-1.9v-.92c0-1.06-.85-1.91-1.9-1.91h-.76c-1.06,0-1.9.85-1.9,1.91Zm1.09.05c0-.52.43-.94.96-.94h.38c.24,0,.45.08.6.22l-1.74,1.74c-.13-.14-.2-.34-.2-.55v-.47h0Z"/><path class="cls-1" d="m40.89,71.08l-3.88-1.47-.12-3.24c-.01-.39-.3-.72-.69-.8h-.1s-.51.01-.51.01c-.43.01-.8.34-.85.77l-.72,6.89c-.05.43.22.83.64.93l5.87,1.47c.26.05.54-.03.73-.2.21-.18.32-.43.3-.71l-.25-2.99c-.01-.29-.17-.54-.42-.68Z"/><path class="cls-1" d="m58.36,65.59l-.5-.03h-.12c-.39.09-.68.42-.69.81l-.11,3.24-3.89,1.47c-.25.14-.39.39-.42.68l-.24,2.99c-.03.28.08.52.29.71.2.17.47.25.73.2l5.87-1.47c.42-.1.7-.5.66-.93l-.73-6.89c-.05-.43-.42-.76-.85-.77Z"/></g></svg>